<svg xmlns="http://www.w3.org/2000/svg" viewBox="0 0 64 64" fill="none">
  <rect x="6" y="6" width="52" height="52" rx="14" fill="#0F172A"/>
  <rect x="10" y="10" width="44" height="44" rx="12" fill="#2563EB" opacity="0.12"/>
  <path
    d="M22.2 38.6c0-7 5.4-12.2 12.8-12.2 3.6 0 6.8 1.2 9.1 3.4l-3 3.1c-1.5-1.4-3.4-2.1-5.8-2.1-4.5 0-7.6 3.1-7.6 7.8 0 4.8 3.1 7.9 7.6 7.9 2.4 0 4.4-.8 6-2.3l3 3c-2.3 2.4-5.6 3.7-9.2 3.7-7.5 0-12.9-5.2-12.9-12.3Z"
    fill="#F8FAFC"
  />
  <path
    d="M47 46.8h-4.7l-1.4-3.9H33l-1.4 3.9H27l7.6-20.5h4.8L47 46.8Zm-7.3-7.4-2.7-7.8-2.7 7.8h5.4Z"
    fill="#F8FAFC"
  />
</svg>